# xmcd
#
# Track frame offsets:
#	150
#	20193
#	38209
#	56308
#	77443
#	96249
#	112046
#	134893
#	149160
#	166452
#	182643
#
# Disc length: 2654 seconds
#
# Revision: 1
# Processed by: cddbd v1.5.2PL0 Copyright (c) Steve Scherf et al.
# Submitted via: audiograbber 1.83.01
#
DISCID=a10a5c0b
DTITLE=HERMANAS SISTER - SONGS FOR DISFUNTIONAL LOVERS
DYEAR=2010
DGENRE=Blues
TTITLE0=I Knew
TTITLE1=Dysfunctional
TTITLE2=What's Left Of Us
TTITLE3=Write On Me
TTITLE4=Mad Song
TTITLE5=Bird
TTITLE6=Don't Wait Until It Breaks
TTITLE7=Milkteeth and Postcards
TTITLE8=Broken Up
TTITLE9=Figure It Out
TTITLE10=Dream Dive
EXTD=
EXTT0=
EXTT1=
EXTT2=
EXTT3=
EXTT4=
EXTT5=
EXTT6=
EXTT7=
EXTT8=
EXTT9=
EXTT10=
PLAYORDER=
